<?xml version="1.0" encoding="UTF-8"?>
<!DOCTYPE svg PUBLIC "-//W3C//DTD SVG 1.1//EN" "http://www.w3.org/Graphics/SVG/1.1/DTD/svg11.dtd">
<!-- Creator: CorelDRAW 2017 -->
<svg xmlns="http://www.w3.org/2000/svg" xml:space="preserve" width="210mm" height="297mm" version="1.1" style="shape-rendering:geometricPrecision; text-rendering:geometricPrecision; image-rendering:optimizeQuality; fill-rule:evenodd; clip-rule:evenodd"
viewBox="0 0 21000 29700"
 xmlns:xlink="http://www.w3.org/1999/xlink">
 <defs>
  <style type="text/css">
   <![CDATA[
    .fil0 {fill:black}
   ]]>
  </style>
 </defs>
 <g id="Camada_x0020_1">
  <metadata id="CorelCorpID_0Corel-Layer"/>
  <g id="_2300074275440">
   <path class="fil0" d="M10410 23236l1076 3589 996 -6 -9 -5244 -863 16 -14 2931c-164,-299 -754,-2713 -907,-2947l-1179 4 2 5230c132,36 727,31 876,6l23 -3578z"/>
   <polygon class="fil0" points="8744,17489 9845,21111 10824,21107 10815,15863 9952,15866 9937,18825 9049,15863 7851,15867 7856,21109 8732,21100 "/>
   <path class="fil0" d="M14044 24493c757,-70 947,25 946,779 -1,525 78,895 -956,750l10 -1529zm-7 -2111c149,-30 548,-28 682,50 249,145 261,1026 -25,1194 -143,84 -506,90 -661,49l3 -1293zm1290 1648c367,-292 509,-399 538,-926 59,-1089 -298,-1494 -1384,-1527 -259,-8 -1221,-30 -1418,17l5 5218c246,49 1263,24 1568,14 1190,-41 1400,-763 1320,-1818 -44,-583 -200,-697 -629,-978z"/>
   <path class="fil0" d="M7376 10953c165,-34 586,-36 724,76 178,144 137,471 137,680 0,236 34,524 -166,681 -154,120 -518,125 -701,81l6 -1518zm-977 4433l960 9 11 -2099c520,-122 864,59 872,610 6,433 -60,1083 89,1475l976 13c-34,-276 -92,-112 -91,-713 0,-266 6,-540 -1,-805 -21,-830 -367,-852 -556,-1050 370,-239 521,-466 546,-934 21,-393 38,-976 -204,-1301 -257,-345 -662,-422 -1086,-440 -305,-13 -1264,-40 -1514,10l-3 5224z"/>
   <path class="fil0" d="M6178 21584c-38,314 -9,2803 -9,3347 0,451 -61,1092 221,1465 527,694 1892,667 2359,-13 278,-404 218,-979 218,-1452 0,-636 32,-2914 -6,-3354l-911 13c-56,772 -5,2729 -5,3713 0,392 53,800 -470,793 -508,-7 -434,-453 -434,-824 0,-975 51,-2929 -5,-3695l-959 7z"/>
   <path class="fil0" d="M11093 11233l403 2463 -821 -12 418 -2451zm-542 3221l1086 5 161 934 978 -8 -959 -5238 -1362 3c-58,115 -937,4902 -955,5244l889 -8 162 -932z"/>
   <path class="fil0" d="M12354 19407c-6,-191 357,-2317 413,-2413 66,298 403,2235 384,2419l-796 -6zm-132 760l1081 4 170 939 971 -6 -959 -5242 -1375 9c-95,324 -379,2107 -479,2619 -76,390 -479,2383 -456,2621l879 -5 167 -939z"/>
   <path class="fil0" d="M14104 12642c-27,-196 -32,-1532 7,-1698 838,-51 814,85 814,857 0,740 16,931 -821,840zm-9 814c267,-60 595,18 918,-69 970,-259 936,-1161 879,-2081 -34,-554 -320,-968 -867,-1099 -308,-73 -1593,-100 -1906,-50l9 5235 965 -4 3 -1933z"/>
   <polygon class="fil0" points="9794,9671 12349,9679 12357,8892 10775,8885 10770,7419 12029,7411 12035,6632 10780,6618 10770,5224 12349,5220 12355,4436 9807,4430 "/>
   <polygon class="fil0" points="8181,7916 7303,7926 7294,8811 6421,8812 6415,9698 9064,9703 9073,7042 8194,7038 "/>
   <path class="fil0" d="M13225 9648l2644 11 9 -880c-234,-14 -708,34 -884,-26l-1 -858 -869 -8 -12 -878 -885 -5 -3 2645z"/>
   <path class="fil0" d="M10571 4191l629 7c152,-116 836,-735 892,-871 -1149,-2 -871,-100 -1231,395 -97,133 -260,322 -290,469z"/>
  </g>
 </g>
</svg>
