<?xml version="1.0" encoding="UTF-8"?>
<!DOCTYPE svg PUBLIC "-//W3C//DTD SVG 1.1//EN" "http://www.w3.org/Graphics/SVG/1.1/DTD/svg11.dtd">
<!-- Creator: CorelDRAW 2017 -->
<svg xmlns="http://www.w3.org/2000/svg" xml:space="preserve" width="210mm" height="297mm" version="1.1" style="shape-rendering:geometricPrecision; text-rendering:geometricPrecision; image-rendering:optimizeQuality; fill-rule:evenodd; clip-rule:evenodd"
viewBox="0 0 21000 29700"
 xmlns:xlink="http://www.w3.org/1999/xlink">
 <defs>
  <style type="text/css">
   <![CDATA[
    .fil0 {fill:black}
   ]]>
  </style>
 </defs>
 <g id="Camada_x0020_1">
  <metadata id="CorelCorpID_0Corel-Layer"/>
  <g id="_2336400112720">
   <polygon class="fil0" points="5493,6018 3030,6041 3024,8499 585,8528 554,11008 5476,11010 5492,13406 3026,13419 3022,15878 557,15891 559,18374 5499,18374 5491,20811 3028,20825 3023,23284 555,23300 558,25780 7975,25782 7988,3569 5496,3565 "/>
   <path class="fil0" d="M13062 25766l7406 16 20 -2483 -2465 -3 -7 -2470 -2459 -4 -15 -2415c360,-83 4549,-78 4918,4l28 -2524 -2460 0 -11 -2470 -2461 -1 -10 -2390 4944 -17 -3 -2474c-468,-4 -2119,-94 -2432,43 -99,-633 -44,-1816 -34,-2502l-2476 -43 -1 -2472 -2477 6 -3 22198z"/>
   <path class="fil0" d="M9228 14219c225,285 267,212 375,463 -162,189 -281,227 -379,460l823 824c233,-90 274,-223 468,-377 229,98 246,237 466,374 264,-184 565,-585 845,-804 -132,-270 -205,-252 -381,-478l388 -443 -846 -881 -463 396c-221,-155 -258,-272 -464,-371l-832 836z"/>
   <path class="fil0" d="M9233 21630c136,195 262,221 370,455 -150,176 -291,255 -382,464 148,160 674,747 908,813l406 -389 433 386c257,-165 731,-659 837,-885 -186,-204 -214,-165 -359,-390l389 -469 -888 -859 -434 391c-223,-138 -252,-250 -451,-358l-831 840z"/>
   <path class="fil0" d="M9222 6812l387 463 -384 449 840 845c241,-89 310,-218 450,-355l437 385 877 -852 -391 -457c128,-203 250,-265 395,-368 -110,-233 -663,-769 -863,-929l-435 394c-144,-138 -271,-316 -474,-385l-838 810z"/>
  </g>
 </g>
</svg>
