<?xml version="1.0" encoding="UTF-8"?>
<!DOCTYPE svg PUBLIC "-//W3C//DTD SVG 1.1//EN" "http://www.w3.org/Graphics/SVG/1.1/DTD/svg11.dtd">
<!-- Creator: CorelDRAW 2017 -->
<svg xmlns="http://www.w3.org/2000/svg" xml:space="preserve" width="210mm" height="297mm" version="1.1" style="shape-rendering:geometricPrecision; text-rendering:geometricPrecision; image-rendering:optimizeQuality; fill-rule:evenodd; clip-rule:evenodd"
viewBox="0 0 21000 29700"
 xmlns:xlink="http://www.w3.org/1999/xlink">
 <defs>
  <style type="text/css">
   <![CDATA[
    .fil0 {fill:black}
   ]]>
  </style>
 </defs>
 <g id="Camada_x0020_1">
  <metadata id="CorelCorpID_0Corel-Layer"/>
  <g id="_2336397948976">
   <polygon class="fil0" points="11262,21895 13809,21895 13809,19413 16291,19413 16291,16931 18774,16931 18774,14449 11262,14449 "/>
   <polygon class="fil0" points="7865,8113 7800,8113 7800,8178 5383,8178 5383,10595 5318,10595 5318,10660 2901,10660 2901,13142 10282,13142 10282,13077 10347,13077 10347,5696 10282,5696 10282,5630 7865,5630 "/>
   <path class="fil0" d="M11458 5826l2156 0 0 2482 2482 0 0 2482 2482 0 0 2156 -7120 0 0 -7120zm-327 7446l7773 0 0 -2809 -2482 0 0 -2482 -2482 0 0 -2482 -2809 0 0 7773z"/>
   <path class="fil0" d="M3031 14579l7185 0 0 7120 -65 0 0 65 -2090 0 0 -65 -65 0 0 -2417 -2482 0 0 -2482 -2417 0 0 -65 -65 0 0 -2156zm-261 -261l-65 0 0 2743 2482 0 0 2482 2482 0 0 2482 2809 0 0 -7773 -7708 0 0 65z"/>
  </g>
 </g>
</svg>
