<?xml version="1.0" encoding="UTF-8"?>
<!DOCTYPE svg PUBLIC "-//W3C//DTD SVG 1.1//EN" "http://www.w3.org/Graphics/SVG/1.1/DTD/svg11.dtd">
<!-- Creator: CorelDRAW 2017 -->
<svg xmlns="http://www.w3.org/2000/svg" xml:space="preserve" width="210mm" height="297mm" version="1.1" style="shape-rendering:geometricPrecision; text-rendering:geometricPrecision; image-rendering:optimizeQuality; fill-rule:evenodd; clip-rule:evenodd"
viewBox="0 0 21000 29700"
 xmlns:xlink="http://www.w3.org/1999/xlink">
 <defs>
  <style type="text/css">
   <![CDATA[
    .fil0 {fill:black}
   ]]>
  </style>
 </defs>
 <g id="Camada_x0020_1">
  <metadata id="CorelCorpID_0Corel-Layer"/>
  <g id="_2336394042976">
   <path class="fil0" d="M6632 17020l35 0 0 -104 35 0 0 -104 35 0 0 -35 35 0 0 -69 35 0 0 -35 35 0 0 -69 35 0 0 -35 35 0 0 -35 35 0 0 -35 69 0 0 -35 35 0 0 -35 35 0 0 -35 69 0 0 -35 35 0 0 -35 69 0 0 -35 69 0 0 -35 104 0 0 -35 104 0 0 -35 104 0 0 -35 69 0 0 -35 173 0 0 -35 139 0 0 -35 278 0 0 -35 590 0 0 35 243 0 0 35 278 0 0 35 104 0 0 35 139 0 0 35 69 0 0 35 139 0 0 35 69 0 0 35 35 0 0 35 69 0 0 35 69 0 0 35 35 0 0 35 69 0 0 35 35 0 0 35 35 0 0 35 35 0 0 35 35 0 0 35 35 0 0 35 35 0 0 69 35 0 0 35 35 0 0 69 35 0 0 69 35 0 0 139 35 0 0 486 -35 0 0 69 -35 0 0 104 -35 0 0 35 -35 0 0 69 -35 0 0 35 -35 0 0 69 -35 0 0 35 -35 0 0 35 -35 0 0 35 -35 0 0 35 -35 0 0 35 -35 0 0 35 -69 0 0 35 -35 0 0 35 -69 0 0 35 -69 0 0 35 -69 0 0 35 -69 0 0 35 -69 0 0 35 -69 0 0 35 -139 0 0 35 -139 0 0 35 -173 0 0 35 -174 0 0 35 -833 0 0 -35 -208 0 0 -35 -139 0 0 -35 -174 0 0 -35 -35 0 0 -35 -139 0 0 -35 -69 0 0 -35 -69 0 0 -35 -69 0 0 -35 -69 0 0 -35 -35 0 0 -35 -69 0 0 -35 -35 0 0 -35 -35 0 0 -35 -69 0 0 -35 -35 0 0 -35 -35 0 0 -35 -35 0 0 -35 -35 0 0 -69 -35 0 0 -35 -35 0 0 -69 -35 0 0 -69 -35 0 0 -69 -35 0 0 -139 -35 0 0 -416zm3747 -3088l-35 0 0 69 -35 0 0 104 -35 0 0 35 -35 0 0 69 -35 0 0 35 -35 0 0 35 -35 0 0 35 -35 0 0 35 -35 0 0 35 -35 0 0 35 -35 0 0 35 -35 0 0 35 -69 0 0 35 -35 0 0 35 -69 0 0 35 -69 0 0 35 -69 0 0 35 -69 0 0 35 -104 0 0 35 -69 0 0 35 -208 0 0 35 -174 0 0 35 -833 0 0 -35 -208 0 0 -35 -139 0 0 -35 -69 0 0 -35 -139 0 0 -35 -69 0 0 -35 -69 0 0 -35 -69 0 0 -35 -35 0 0 -35 -69 0 0 -35 -35 0 0 -35 -69 0 0 -35 -35 0 0 -35 -35 0 0 -35 -35 0 0 -35 -35 0 0 -35 -35 0 0 -35 -35 0 0 -69 -35 0 0 -35 -35 0 0 -69 -35 0 0 -35 -35 0 0 -174 -35 0 0 -69 -35 0 0 -312 35 0 0 -139 35 0 0 -69 35 0 0 -69 35 0 0 -69 35 0 0 -35 35 0 0 -35 35 0 0 -35 35 0 0 -69 35 0 0 -35 35 0 0 -35 69 0 0 -35 35 0 0 -35 35 0 0 -35 69 0 0 -35 69 0 0 -35 35 0 0 -35 69 0 0 -35 104 0 0 -35 69 0 0 -35 139 0 0 -35 69 0 0 -35 208 0 0 -35 972 0 0 35 208 0 0 35 69 0 0 35 104 0 0 35 139 0 0 35 69 0 0 35 69 0 0 35 69 0 0 35 69 0 0 35 35 0 0 35 69 0 0 35 35 0 0 35 35 0 0 35 35 0 0 35 35 0 0 35 35 0 0 35 35 0 0 35 35 0 0 69 35 0 0 35 35 0 0 104 35 0 0 35 35 0 0 173 35 0 0 278 -35 0 0 174zm-2221 -2776l-312 0 0 35 -278 0 0 35 -104 0 0 35 -208 0 0 35 -104 0 0 35 -69 0 0 35 -139 0 0 35 -69 0 0 35 -69 0 0 35 -104 0 0 35 -69 0 0 35 -104 0 0 35 -35 0 0 35 -69 0 0 35 -69 0 0 35 -69 0 0 35 -35 0 0 35 -69 0 0 35 -35 0 0 35 -35 0 0 35 -69 0 0 35 -35 0 0 35 -35 0 0 35 -35 0 0 35 -35 0 0 35 -35 0 0 35 -35 0 0 35 -35 0 0 35 -35 0 0 35 -35 0 0 35 -35 0 0 35 -35 0 0 69 -35 0 0 35 -35 0 0 35 -35 0 0 69 -35 0 0 35 -35 0 0 69 -35 0 0 35 -35 0 0 69 -35 0 0 104 -35 0 0 35 -35 0 0 139 -35 0 0 139 -35 0 0 69 -35 0 0 208 -35 0 0 625 35 0 0 174 35 0 0 173 35 0 0 35 35 0 0 104 35 0 0 69 35 0 0 69 35 0 0 69 35 0 0 35 35 0 0 69 35 0 0 35 35 0 0 69 35 0 0 35 35 0 0 35 35 0 0 35 35 0 0 35 35 0 0 35 35 0 0 35 35 0 0 35 35 0 0 35 35 0 0 35 69 0 0 35 35 0 0 35 69 0 0 35 35 0 0 35 69 0 0 35 35 0 0 69 -69 0 0 35 -69 0 0 35 -69 0 0 35 -69 0 0 35 -35 0 0 35 -69 0 0 35 -69 0 0 35 -35 0 0 35 -35 0 0 35 -35 0 0 35 -35 0 0 35 -35 0 0 35 -35 0 0 35 -35 0 0 35 -35 0 0 35 -35 0 0 69 -35 0 0 35 -35 0 0 35 -35 0 0 35 -35 0 0 69 -35 0 0 69 -35 0 0 35 -35 0 0 69 -35 0 0 104 -35 0 0 69 -35 0 0 69 -35 0 0 139 -35 0 0 139 -35 0 0 139 -35 0 0 555 35 0 0 139 35 0 0 208 35 0 0 139 35 0 0 69 35 0 0 139 35 0 0 69 35 0 0 69 35 0 0 69 35 0 0 35 35 0 0 69 35 0 0 69 35 0 0 35 35 0 0 35 35 0 0 69 35 0 0 35 35 0 0 35 35 0 0 35 35 0 0 35 35 0 0 35 35 0 0 35 35 0 0 35 35 0 0 35 35 0 0 35 35 0 0 35 35 0 0 35 35 0 0 35 69 0 0 35 35 0 0 35 69 0 0 35 35 0 0 35 69 0 0 35 35 0 0 35 69 0 0 35 69 0 0 35 69 0 0 35 35 0 0 35 139 0 0 35 69 0 0 35 69 0 0 35 69 0 0 35 139 0 0 35 104 0 0 35 104 0 0 35 104 0 0 35 208 0 0 35 173 0 0 35 174 0 0 35 382 0 0 35 1110 0 0 -35 278 0 0 -35 139 0 0 -35 208 0 0 -35 208 0 0 -35 69 0 0 -35 139 0 0 -35 139 0 0 -35 104 0 0 -35 69 0 0 -35 69 0 0 -35 69 0 0 -35 104 0 0 -35 69 0 0 -35 69 0 0 -35 35 0 0 -35 69 0 0 -35 69 0 0 -35 35 0 0 -35 69 0 0 -35 35 0 0 -35 35 0 0 -35 69 0 0 -35 35 0 0 -35 35 0 0 -35 35 0 0 -35 35 0 0 -35 35 0 0 -35 69 0 0 -69 35 0 0 -35 35 0 0 -35 35 0 0 -35 35 0 0 -35 35 0 0 -35 35 0 0 -69 35 0 0 -35 35 0 0 -69 35 0 0 -35 35 0 0 -69 35 0 0 -69 35 0 0 -69 35 0 0 -69 35 0 0 -139 35 0 0 -104 35 0 0 -104 35 0 0 -173 35 0 0 -173 35 0 0 -555 -35 0 0 -173 -35 0 0 -174 -35 0 0 -69 -35 0 0 -139 -35 0 0 -69 -35 0 0 -69 -35 0 0 -69 -35 0 0 -69 -35 0 0 -35 -35 0 0 -69 -35 0 0 -35 -35 0 0 -69 -35 0 0 -35 -35 0 0 -35 -35 0 0 -35 -35 0 0 -69 -35 0 0 -35 -35 0 0 -35 -35 0 0 -35 -35 0 0 -35 -35 0 0 -35 -69 0 0 -35 -35 0 0 -35 -35 0 0 -35 -69 0 0 -35 -35 0 0 -35 -69 0 0 -35 -35 0 0 -35 -69 0 0 -35 -104 0 0 -69 69 0 0 -35 69 0 0 -35 69 0 0 -35 35 0 0 -35 69 0 0 -35 35 0 0 -35 35 0 0 -35 69 0 0 -35 35 0 0 -35 35 0 0 -35 35 0 0 -35 35 0 0 -35 35 0 0 -35 35 0 0 -35 35 0 0 -69 35 0 0 -35 35 0 0 -69 35 0 0 -35 35 0 0 -69 35 0 0 -69 35 0 0 -104 35 0 0 -35 35 0 0 -173 35 0 0 -174 35 0 0 -625 -35 0 0 -208 -35 0 0 -139 -35 0 0 -69 -35 0 0 -104 -35 0 0 -69 -35 0 0 -69 -35 0 0 -69 -35 0 0 -69 -35 0 0 -35 -35 0 0 -69 -35 0 0 -35 -35 0 0 -69 -35 0 0 -35 -35 0 0 -35 -35 0 0 -69 -35 0 0 -35 -35 0 0 -35 -35 0 0 -35 -35 0 0 -35 -35 0 0 -35 -69 0 0 -35 -35 0 0 -35 -35 0 0 -35 -35 0 0 -35 -35 0 0 -35 -69 0 0 -35 -35 0 0 -35 -35 0 0 -35 -69 0 0 -35 -69 0 0 -35 -35 0 0 -35 -69 0 0 -35 -69 0 0 -35 -69 0 0 -35 -69 0 0 -35 -69 0 0 -35 -104 0 0 -35 -69 0 0 -35 -104 0 0 -35 -104 0 0 -35 -104 0 0 -35 -104 0 0 -35 -139 0 0 -35 -208 0 0 -35 -104 0 0 -35 -451 0 0 -35 -867 0 0 35z"/>
   <polygon class="fil0" points="18603,14869 14439,14869 14439,11295 12843,11295 12843,19796 14439,19796 14439,16361 18603,16361 18603,19796 20233,19796 20233,11261 18603,11261 "/>
   <path class="fil0" d="M19435 9109l-35 0 0 69 -35 0 0 69 -35 0 0 35 -35 0 0 35 -35 0 0 35 -35 0 0 35 -69 0 0 35 -35 0 0 35 -69 0 0 35 -35 0 0 35 -104 0 0 35 -104 0 0 35 -139 0 0 35 -139 0 0 35 -173 0 0 35 -2359 0 0 -1908 2325 0 0 35 139 0 0 35 104 0 0 35 104 0 0 35 104 0 0 35 104 0 0 35 69 0 0 35 35 0 0 35 69 0 0 35 35 0 0 35 69 0 0 35 35 0 0 35 35 0 0 35 35 0 0 35 35 0 0 35 35 0 0 69 35 0 0 35 35 0 0 69 35 0 0 104 35 0 0 416 -35 0 0 104zm-208 -3053l-35 0 0 104 -35 0 0 69 -35 0 0 35 -35 0 0 35 -35 0 0 35 -35 0 0 35 -35 0 0 35 -69 0 0 35 -69 0 0 35 -69 0 0 35 -104 0 0 35 -278 0 0 35 -2394 0 0 -1665 2394 0 0 35 139 0 0 35 139 0 0 35 69 0 0 35 69 0 0 35 35 0 0 35 69 0 0 35 35 0 0 35 35 0 0 35 35 0 0 35 35 0 0 35 35 0 0 35 35 0 0 69 35 0 0 69 35 0 0 35 35 0 0 104 35 0 0 382 -35 0 0 69zm-4580 4927l3817 0 0 -35 278 0 0 -35 278 0 0 -35 208 0 0 -35 139 0 0 -35 69 0 0 -35 139 0 0 -35 69 0 0 -35 69 0 0 -35 104 0 0 -35 69 0 0 -35 69 0 0 -35 35 0 0 -35 69 0 0 -35 35 0 0 -35 69 0 0 -35 35 0 0 -35 35 0 0 -35 35 0 0 -35 35 0 0 -35 35 0 0 -35 35 0 0 -35 35 0 0 -35 35 0 0 -35 35 0 0 -35 35 0 0 -69 35 0 0 -69 35 0 0 -35 35 0 0 -69 35 0 0 -69 35 0 0 -69 35 0 0 -69 35 0 0 -139 35 0 0 -208 35 0 0 -208 35 0 0 -520 -35 0 0 -173 -35 0 0 -69 -35 0 0 -139 -35 0 0 -69 -35 0 0 -69 -35 0 0 -69 -35 0 0 -69 -35 0 0 -69 -35 0 0 -35 -35 0 0 -69 -35 0 0 -35 -35 0 0 -35 -35 0 0 -69 -35 0 0 -35 -35 0 0 -35 -69 0 0 -35 -35 0 0 -35 -35 0 0 -35 -35 0 0 -35 -35 0 0 -35 -69 0 0 -35 -35 0 0 -35 -69 0 0 -35 -104 0 0 -35 -69 0 0 -35 -69 0 0 -35 69 0 0 -35 69 0 0 -35 69 0 0 -35 35 0 0 -35 69 0 0 -35 35 0 0 -35 35 0 0 -35 35 0 0 -35 35 0 0 -35 69 0 0 -69 35 0 0 -35 35 0 0 -35 35 0 0 -35 35 0 0 -35 35 0 0 -69 35 0 0 -69 35 0 0 -35 35 0 0 -104 35 0 0 -104 35 0 0 -139 35 0 0 -104 35 0 0 -590 -35 0 0 -173 -35 0 0 -139 -35 0 0 -104 -35 0 0 -104 -35 0 0 -35 -35 0 0 -104 -35 0 0 -69 -35 0 0 -69 -35 0 0 -35 -35 0 0 -69 -35 0 0 -35 -35 0 0 -35 -35 0 0 -69 -35 0 0 -35 -35 0 0 -35 -35 0 0 -35 -35 0 0 -35 -35 0 0 -35 -69 0 0 -35 -35 0 0 -35 -35 0 0 -35 -69 0 0 -35 -35 0 0 -35 -69 0 0 -35 -35 0 0 -35 -104 0 0 -35 -35 0 0 -35 -69 0 0 -35 -104 0 0 -35 -69 0 0 -35 -104 0 0 -35 -174 0 0 -35 -139 0 0 -35 -139 0 0 -35 -4094 0 0 7321z"/>
   <polygon class="fil0" points="7985,10983 9373,10983 9373,6125 9443,6125 9443,6195 9477,6195 9477,6230 9512,6230 9512,6264 9547,6264 9547,6299 9581,6299 9581,6368 9616,6368 9616,6403 9651,6403 9651,6438 9685,6438 9685,6507 9720,6507 9720,6542 9755,6542 9755,6577 9790,6577 9790,6611 9824,6611 9824,6681 9859,6681 9859,6715 9894,6715 9894,6750 9928,6750 9928,6819 9963,6819 9963,6854 9998,6854 9998,6889 10032,6889 10032,6923 10067,6923 10067,6993 10102,6993 10102,7028 10137,7028 10137,7062 10171,7062 10171,7132 10206,7132 10206,7166 10241,7166 10241,7201 10275,7201 10275,7236 10310,7236 10310,7305 10345,7305 10345,7340 10379,7340 10379,7375 10414,7375 10414,7444 10449,7444 10449,7479 10483,7479 10483,7513 10518,7513 10518,7548 10553,7548 10553,7617 10588,7617 10588,7652 10622,7652 10622,7687 10657,7687 10657,7756 10692,7756 10692,7791 10726,7791 10726,7860 10761,7860 10761,7895 10796,7895 10796,7930 10830,7930 10830,7964 10865,7964 10865,7999 10900,7999 10900,8069 10935,8069 10935,8103 10969,8103 10969,8138 11004,8138 11004,8173 11039,8173 11039,8242 11073,8242 11073,8277 11108,8277 11108,8311 11143,8311 11143,8381 11177,8381 11177,8415 11212,8415 11212,8450 11247,8450 11247,8485 11282,8485 11282,8554 11316,8554 11316,8589 11351,8589 11351,8624 11386,8624 11386,8658 11420,8658 11420,8728 11455,8728 11455,8762 11490,8762 11490,8797 11524,8797 11524,8867 11559,8867 11559,8901 11594,8901 11594,8936 11628,8936 11628,9005 11663,9005 11663,9040 11698,9040 11698,9075 11733,9075 11733,9109 11767,9109 11767,9179 11802,9179 11802,9214 11837,9214 11837,9248 11871,9248 11871,9283 11906,9283 11906,9352 11941,9352 11941,9387 11975,9387 11975,9422 12010,9422 12010,9491 12045,9491 12045,9526 12080,9526 12080,9560 12114,9560 12114,9595 12149,9595 12149,9665 12184,9665 12184,9699 12218,9699 12218,9734 12253,9734 12253,9803 12322,9803 12322,9873 12357,9873 12357,9907 12392,9907 12392,9977 12427,9977 12427,10012 12461,10012 12461,10046 12496,10046 12496,10116 12531,10116 12531,10150 12565,10150 12565,10185 12600,10185 12600,10220 12635,10220 12635,10289 12669,10289 12669,10359 12739,10359 12739,10428 12774,10428 12774,10463 12808,10463 12808,10497 12843,10497 12843,10532 12878,10532 12878,10601 12912,10601 12912,10636 12947,10636 12947,10671 12982,10671 12982,10740 13016,10740 13016,10775 13051,10775 13051,10810 13086,10810 13086,10879 13120,10879 13120,10914 13155,10914 13155,10948 13190,10948 13190,10983 14057,10983 14057,3662 12669,3662 12669,8138 12635,8138 12635,8103 12600,8103 12600,8069 12565,8069 12565,8034 12531,8034 12531,7964 12496,7964 12496,7930 12461,7930 12461,7895 12427,7895 12427,7860 12392,7860 12392,7826 12357,7826 12357,7756 12322,7756 12322,7722 12288,7722 12288,7687 12253,7687 12253,7617 12218,7617 12218,7583 12184,7583 12184,7548 12149,7548 12149,7479 12114,7479 12114,7444 12080,7444 12080,7409 12045,7409 12045,7375 12010,7375 12010,7305 11975,7305 11975,7270 11941,7270 11941,7236 11906,7236 11906,7201 11871,7201 11871,7132 11837,7132 11837,7097 11802,7097 11802,7062 11767,7062 11767,7028 11733,7028 11733,6958 11698,6958 11698,6923 11663,6923 11663,6889 11628,6889 11628,6819 11594,6819 11594,6785 11559,6785 11559,6750 11524,6750 11524,6715 11490,6715 11490,6646 11455,6646 11455,6611 11420,6611 11420,6577 11386,6577 11386,6542 11351,6542 11351,6472 11282,6472 11282,6403 11247,6403 11247,6368 11212,6368 11212,6299 11177,6299 11177,6264 11143,6264 11143,6230 11108,6230 11108,6160 11073,6160 11073,6125 11039,6125 11039,6091 11004,6091 11004,6056 10969,6056 10969,5987 10935,5987 10935,5952 10900,5952 10900,5917 10865,5917 10865,5883 10830,5883 10830,5813 10796,5813 10796,5778 10761,5778 10761,5744 10726,5744 10726,5674 10692,5674 10692,5640 10657,5640 10657,5605 10622,5605 10622,5570 10588,5570 10588,5501 10553,5501 10553,5466 10518,5466 10518,5432 10483,5432 10483,5397 10449,5397 10449,5327 10414,5327 10414,5293 10379,5293 10379,5258 10345,5258 10345,5223 10310,5223 10310,5154 10275,5154 10275,5119 10241,5119 10241,5085 10206,5085 10206,5015 10171,5015 10171,4980 10137,4980 10137,4946 10102,4946 10102,4911 10067,4911 10067,4842 10032,4842 10032,4807 9998,4807 9998,4772 9963,4772 9963,4738 9928,4738 9928,4668 9894,4668 9894,4633 9859,4633 9859,4599 9824,4599 9824,4529 9790,4529 9790,4495 9755,4495 9755,4460 9720,4460 9720,4425 9685,4425 9685,4356 9651,4356 9651,4321 9616,4321 9616,4287 9581,4287 9581,4252 9547,4252 9547,4182 9512,4182 9512,4148 9477,4148 9477,4113 9443,4113 9443,4078 9408,4078 9408,4009 9373,4009 9373,3974 9338,3974 9338,3940 9304,3940 9304,3870 9269,3870 9269,3835 9234,3835 9234,3801 9200,3801 9200,3766 9165,3766 9165,3697 9096,3697 9096,3662 7985,3662 "/>
   <polygon class="fil0" points="734,8346 768,8346 768,8485 803,8485 803,8693 838,8693 838,8901 872,8901 872,8971 907,8971 907,9075 942,9075 942,9179 977,9179 977,9283 1011,9283 1011,9387 1046,9387 1046,9456 1081,9456 1081,9526 1115,9526 1115,9595 1150,9595 1150,9665 1185,9665 1185,9699 1219,9699 1219,9769 1254,9769 1254,9838 1289,9838 1289,9873 1323,9873 1323,9907 1358,9907 1358,9977 1393,9977 1393,10012 1428,10012 1428,10046 1462,10046 1462,10081 1497,10081 1497,10116 1532,10116 1532,10185 1566,10185 1566,10220 1601,10220 1601,10254 1636,10254 1636,10289 1670,10289 1670,10324 1705,10324 1705,10359 1775,10359 1775,10393 1809,10393 1809,10428 1844,10428 1844,10463 1879,10463 1879,10497 1948,10497 1948,10532 1983,10532 1983,10567 2052,10567 2052,10601 2087,10601 2087,10636 2156,10636 2156,10671 2191,10671 2191,10705 2260,10705 2260,10740 2330,10740 2330,10775 2399,10775 2399,10810 2468,10810 2468,10844 2573,10844 2573,10879 2677,10879 2677,10914 2746,10914 2746,10948 2850,10948 2850,10983 3024,10983 3024,11018 3128,11018 3128,11052 3336,11052 3336,11087 3475,11087 3475,11122 4516,11122 4516,11087 4654,11087 4654,11052 4793,11052 4793,11018 5036,11018 5036,10983 5140,10983 5140,10948 5244,10948 5244,10914 5348,10914 5348,10879 5418,10879 5418,10844 5487,10844 5487,10810 5557,10810 5557,10775 5626,10775 5626,10740 5695,10740 5695,10705 5765,10705 5765,10671 5799,10671 5799,10636 5869,10636 5869,10601 5938,10601 5938,10567 5973,10567 5973,10532 6008,10532 6008,10497 6077,10497 6077,10463 6112,10463 6112,10428 6146,10428 6146,10393 6181,10393 6181,10359 6216,10359 6216,10324 6250,10324 6250,10289 6285,10289 6285,10254 6320,10254 6320,10220 6355,10220 6355,10185 6389,10185 6389,10150 6424,10150 6424,10116 6459,10116 6459,10081 6493,10081 6493,10046 6528,10046 6528,9977 6563,9977 6563,9942 6597,9942 6597,9873 6632,9873 6632,9838 6667,9838 6667,9769 6702,9769 6702,9699 6736,9699 6736,9665 6771,9665 6771,9560 6806,9560 6806,9526 6840,9526 6840,9422 6875,9422 6875,9352 6910,9352 6910,9248 6944,9248 6944,9179 6979,9179 6979,9040 7014,9040 7014,8867 7048,8867 7048,8762 7083,8762 7083,8624 7118,8624 7118,8207 7153,8207 7153,3662 5765,3662 5765,8277 5730,8277 5730,8485 5695,8485 5695,8624 5661,8624 5661,8762 5626,8762 5626,8832 5591,8832 5591,8901 5557,8901 5557,9005 5522,9005 5522,9040 5487,9040 5487,9109 5452,9109 5452,9179 5418,9179 5418,9214 5383,9214 5383,9283 5348,9283 5348,9318 5314,9318 5314,9352 5279,9352 5279,9387 5244,9387 5244,9422 5210,9422 5210,9456 5175,9456 5175,9491 5140,9491 5140,9526 5071,9526 5071,9560 5036,9560 5036,9595 4967,9595 4967,9630 4932,9630 4932,9665 4863,9665 4863,9699 4793,9699 4793,9734 4689,9734 4689,9769 4585,9769 4585,9803 4446,9803 4446,9838 4307,9838 4307,9873 3683,9873 3683,9838 3475,9838 3475,9803 3371,9803 3371,9769 3267,9769 3267,9734 3128,9734 3128,9699 3093,9699 3093,9665 3024,9665 3024,9630 2954,9630 2954,9595 2920,9595 2920,9560 2850,9560 2850,9526 2815,9526 2815,9491 2746,9491 2746,9456 2711,9456 2711,9422 2677,9422 2677,9387 2642,9387 2642,9352 2607,9352 2607,9318 2573,9318 2573,9283 2538,9283 2538,9248 2503,9248 2503,9179 2468,9179 2468,9144 2434,9144 2434,9075 2399,9075 2399,9040 2364,9040 2364,8971 2330,8971 2330,8901 2295,8901 2295,8832 2260,8832 2260,8693 2226,8693 2226,8624 2191,8624 2191,8520 2156,8520 2156,8311 2122,8311 2122,3662 734,3662 "/>
   <polygon class="fil0" points="734,12718 2052,12718 2052,18408 768,18408 768,19796 4828,19796 4828,18408 3648,18408 3648,11261 734,11261 "/>
   <path class="fil0" d="M15272 24827l35 0 0 -104 35 0 0 -35 35 0 0 -104 35 0 0 -69 35 0 0 -69 35 0 0 -104 35 0 0 -69 35 0 0 -69 35 0 0 -104 35 0 0 -69 35 0 0 -69 35 0 0 -69 35 0 0 -69 35 0 0 -139 35 0 0 -35 35 0 0 -104 69 0 0 104 35 0 0 35 35 0 0 104 35 0 0 35 35 0 0 139 35 0 0 69 35 0 0 69 35 0 0 69 35 0 0 69 35 0 0 104 35 0 0 69 35 0 0 69 35 0 0 104 35 0 0 69 35 0 0 69 35 0 0 69 35 0 0 139 -1180 0 0 -104zm-1735 -694l-35 0 0 69 -35 0 0 69 -35 0 0 35 -35 0 0 35 -35 0 0 35 -69 0 0 35 -35 0 0 35 -139 0 0 35 -1110 0 0 -1110 1076 0 0 35 174 0 0 35 35 0 0 35 69 0 0 35 35 0 0 35 35 0 0 35 35 0 0 69 35 0 0 35 35 0 0 139 35 0 0 243 -35 0 0 69zm-2151 2047l625 0 0 -1145 625 0 0 35 35 0 0 69 35 0 0 35 35 0 0 35 35 0 0 35 35 0 0 35 35 0 0 35 35 0 0 35 35 0 0 69 35 0 0 35 35 0 0 35 35 0 0 35 35 0 0 35 35 0 0 35 35 0 0 35 35 0 0 35 35 0 0 69 35 0 0 35 35 0 0 35 35 0 0 35 35 0 0 35 35 0 0 35 35 0 0 69 35 0 0 35 35 0 0 35 35 0 0 35 35 0 0 35 35 0 0 35 35 0 0 35 1076 0 0 -35 35 0 0 -35 35 0 0 -104 35 0 0 -104 35 0 0 -35 35 0 0 -69 35 0 0 -104 35 0 0 -69 35 0 0 -69 35 0 0 -35 1770 0 0 104 35 0 0 69 35 0 0 69 35 0 0 69 35 0 0 104 35 0 0 69 35 0 0 69 35 0 0 69 35 0 0 35 694 0 0 -35 -35 0 0 -104 -35 0 0 -69 -35 0 0 -69 -35 0 0 -69 -35 0 0 -104 -35 0 0 -69 -35 0 0 -69 -35 0 0 -69 -35 0 0 -69 -35 0 0 -104 -35 0 0 -69 -35 0 0 -69 -35 0 0 -104 -35 0 0 -69 -35 0 0 -69 -35 0 0 -69 -35 0 0 -104 -35 0 0 -69 -35 0 0 -69 -35 0 0 -69 -35 0 0 -69 -35 0 0 -104 -35 0 0 -35 -35 0 0 -104 -35 0 0 -69 -35 0 0 -104 -35 0 0 -69 -35 0 0 -69 -35 0 0 -69 -35 0 0 -104 -35 0 0 -69 -35 0 0 -35 -35 0 0 -104 -35 0 0 -104 -35 0 0 -69 -35 0 0 -69 -35 0 0 -69 -35 0 0 -69 -35 0 0 -104 -35 0 0 -35 -35 0 0 -104 -35 0 0 -69 -35 0 0 -104 -763 0 0 104 -35 0 0 104 -35 0 0 69 -35 0 0 69 -35 0 0 69 -35 0 0 69 -35 0 0 104 -35 0 0 35 -35 0 0 139 -35 0 0 35 -35 0 0 104 -35 0 0 69 -35 0 0 69 -35 0 0 69 -35 0 0 104 -35 0 0 69 -35 0 0 69 -35 0 0 69 -35 0 0 104 -35 0 0 69 -35 0 0 69 -35 0 0 69 -35 0 0 69 -35 0 0 104 -35 0 0 69 -35 0 0 104 -35 0 0 35 -35 0 0 104 -35 0 0 69 -35 0 0 69 -35 0 0 69 -35 0 0 104 -35 0 0 35 -35 0 0 69 -35 0 0 104 -35 0 0 104 -35 0 0 35 -35 0 0 104 -35 0 0 69 -69 0 0 -35 -35 0 0 -35 -35 0 0 -35 -35 0 0 -69 -35 0 0 -35 -35 0 0 -35 -35 0 0 -35 -35 0 0 -35 -35 0 0 -35 -35 0 0 -35 -35 0 0 -69 -35 0 0 -35 -35 0 0 -35 -35 0 0 -35 -35 0 0 -35 -35 0 0 -35 -35 0 0 -35 -35 0 0 -35 -35 0 0 -69 -35 0 0 -35 -35 0 0 -69 69 0 0 -35 104 0 0 -35 69 0 0 -35 104 0 0 -35 35 0 0 -35 35 0 0 -35 69 0 0 -35 35 0 0 -35 35 0 0 -35 35 0 0 -69 35 0 0 -35 35 0 0 -69 35 0 0 -69 35 0 0 -104 35 0 0 -173 35 0 0 -451 -35 0 0 -173 -35 0 0 -69 -35 0 0 -69 -35 0 0 -69 -35 0 0 -35 -35 0 0 -69 -35 0 0 -35 -35 0 0 -35 -35 0 0 -35 -35 0 0 -35 -35 0 0 -35 -69 0 0 -35 -35 0 0 -35 -69 0 0 -35 -69 0 0 -35 -69 0 0 -35 -104 0 0 -35 -139 0 0 -35 -1874 0 0 3400z"/>
   <polygon class="fil0" points="768,26180 1393,26180 1393,23752 1462,23752 1462,23821 1497,23821 1497,23856 1532,23856 1532,23925 1566,23925 1566,23960 1601,23960 1601,24029 1636,24029 1636,24064 1670,24064 1670,24099 1705,24099 1705,24168 1740,24168 1740,24203 1775,24203 1775,24237 1809,24237 1809,24307 1844,24307 1844,24341 1879,24341 1879,24411 1913,24411 1913,24446 1948,24446 1948,24480 1983,24480 1983,24550 2017,24550 2017,24584 2052,24584 2052,24619 2087,24619 2087,24688 2122,24688 2122,24723 2156,24723 2156,24758 2191,24758 2191,24827 2226,24827 2226,24862 2260,24862 2260,24897 2295,24897 2295,24966 2330,24966 2330,25001 2364,25001 2364,25070 2399,25070 2399,25105 2434,25105 2434,25139 2468,25139 2468,25174 2642,25174 2642,25139 2677,25139 2677,25070 2711,25070 2711,25035 2746,25035 2746,25001 2781,25001 2781,24966 2815,24966 2815,24897 2850,24897 2850,24862 2885,24862 2885,24827 2920,24827 2920,24758 2954,24758 2954,24723 2989,24723 2989,24688 3024,24688 3024,24619 3058,24619 3058,24584 3093,24584 3093,24550 3128,24550 3128,24515 3162,24515 3162,24446 3197,24446 3197,24411 3232,24411 3232,24341 3267,24341 3267,24307 3301,24307 3301,24272 3336,24272 3336,24203 3371,24203 3371,24168 3405,24168 3405,24133 3440,24133 3440,24064 3475,24064 3475,24029 3509,24029 3509,23994 3544,23994 3544,23925 3579,23925 3579,23890 3613,23890 3613,23856 3648,23856 3648,23786 3718,23786 3718,26180 4342,26180 4342,22780 3613,22780 3613,22849 3579,22849 3579,22884 3544,22884 3544,22919 3509,22919 3509,22954 3475,22954 3475,23023 3440,23023 3440,23058 3405,23058 3405,23127 3371,23127 3371,23162 3336,23162 3336,23196 3301,23196 3301,23266 3267,23266 3267,23301 3232,23301 3232,23335 3197,23335 3197,23405 3162,23405 3162,23439 3128,23439 3128,23509 3093,23509 3093,23543 3058,23543 3058,23578 3024,23578 3024,23647 2989,23647 2989,23682 2954,23682 2954,23717 2920,23717 2920,23786 2885,23786 2885,23821 2850,23821 2850,23890 2815,23890 2815,23925 2781,23925 2781,23960 2746,23960 2746,23994 2711,23994 2711,24064 2677,24064 2677,24099 2642,24099 2642,24168 2607,24168 2607,24203 2538,24203 2538,24168 2503,24168 2503,24133 2468,24133 2468,24099 2434,24099 2434,24029 2399,24029 2399,23994 2364,23994 2364,23960 2330,23960 2330,23890 2295,23890 2295,23856 2260,23856 2260,23786 2226,23786 2226,23752 2191,23752 2191,23717 2156,23717 2156,23682 2122,23682 2122,23613 2087,23613 2087,23578 2052,23578 2052,23509 2017,23509 2017,23474 1983,23474 1983,23405 1948,23405 1948,23370 1913,23370 1913,23335 1879,23335 1879,23266 1844,23266 1844,23231 1809,23231 1809,23162 1775,23162 1775,23127 1740,23127 1740,23092 1705,23092 1705,23023 1670,23023 1670,22988 1636,22988 1636,22954 1601,22954 1601,22884 1566,22884 1566,22849 1532,22849 1532,22780 768,22780 "/>
   <polygon class="fil0" points="9581,22711 9373,22711 9373,22745 9234,22745 9234,22780 9130,22780 9130,22815 9026,22815 9026,22849 8992,22849 8992,22884 8922,22884 8922,22919 8853,22919 8853,22954 8783,22954 8783,22988 8749,22988 8749,23023 8714,23023 8714,23058 8645,23058 8645,23092 8610,23092 8610,23127 8575,23127 8575,23162 8540,23162 8540,23196 8506,23196 8506,23231 8471,23231 8471,23266 8436,23266 8436,23301 8402,23301 8402,23370 8367,23370 8367,23405 8332,23405 8332,23474 8298,23474 8298,23509 8263,23509 8263,23613 8228,23613 8228,23682 8193,23682 8193,23717 8159,23717 8159,23890 8124,23890 8124,23960 8089,23960 8089,24133 8055,24133 8055,24931 8089,24931 8089,25070 8124,25070 8124,25174 8159,25174 8159,25278 8193,25278 8193,25348 8228,25348 8228,25417 8263,25417 8263,25486 8298,25486 8298,25556 8332,25556 8332,25591 8367,25591 8367,25660 8402,25660 8402,25695 8436,25695 8436,25729 8471,25729 8471,25764 8506,25764 8506,25799 8540,25799 8540,25833 8575,25833 8575,25868 8610,25868 8610,25903 8645,25903 8645,25938 8714,25938 8714,25972 8749,25972 8749,26007 8818,26007 8818,26042 8887,26042 8887,26076 8957,26076 8957,26111 9026,26111 9026,26146 9096,26146 9096,26180 9304,26180 9304,26215 9443,26215 9443,26250 10137,26250 10137,26215 10310,26215 10310,26180 10414,26180 10414,26146 10518,26146 10518,26111 10588,26111 10588,26076 10657,26076 10657,26042 10726,26042 10726,26007 10796,26007 10796,25972 10830,25972 10830,25938 10900,25938 10900,25903 10935,25903 10935,25868 10969,25868 10969,25833 11004,25833 11004,25799 11039,25799 11039,25764 11073,25764 11073,25729 11108,25729 11108,25695 11143,25695 11143,25660 11177,25660 11177,24203 9720,24203 9720,24792 10588,24792 10588,25417 10518,25417 10518,25452 10449,25452 10449,25486 10414,25486 10414,25521 10345,25521 10345,25556 10241,25556 10241,25591 10206,25591 10206,25625 10067,25625 10067,25660 9581,25660 9581,25625 9477,25625 9477,25591 9304,25591 9304,25556 9234,25556 9234,25521 9200,25521 9200,25486 9130,25486 9130,25452 9061,25452 9061,25417 9026,25417 9026,25382 8992,25382 8992,25348 8957,25348 8957,25313 8922,25313 8922,25278 8887,25278 8887,25209 8853,25209 8853,25174 8818,25174 8818,25105 8783,25105 8783,25070 8749,25070 8749,24966 8714,24966 8714,24792 8679,24792 8679,24237 8714,24237 8714,24064 8749,24064 8749,23960 8783,23960 8783,23890 8818,23890 8818,23821 8853,23821 8853,23786 8887,23786 8887,23717 8922,23717 8922,23682 8957,23682 8957,23647 8992,23647 8992,23613 9026,23613 9026,23578 9061,23578 9061,23543 9096,23543 9096,23509 9130,23509 9130,23474 9200,23474 9200,23439 9234,23439 9234,23405 9304,23405 9304,23370 9408,23370 9408,23335 9477,23335 9477,23301 10137,23301 10137,23335 10206,23335 10206,23370 10310,23370 10310,23405 10414,23405 10414,23439 10449,23439 10449,23474 10518,23474 10518,23509 10553,23509 10553,23543 10622,23543 10622,23578 10657,23578 10657,23613 10726,23613 10726,23543 10761,23543 10761,23509 10796,23509 10796,23474 10830,23474 10830,23439 10865,23439 10865,23405 10935,23405 10935,23370 10969,23370 10969,23301 11004,23301 11004,23266 11039,23266 11039,23231 11073,23231 11073,23162 11039,23162 11039,23127 10969,23127 10969,23092 10935,23092 10935,23058 10900,23058 10900,23023 10830,23023 10830,22988 10796,22988 10796,22954 10726,22954 10726,22919 10692,22919 10692,22884 10622,22884 10622,22849 10553,22849 10553,22815 10414,22815 10414,22780 10310,22780 10310,22745 10241,22745 10241,22711 10067,22711 10067,22676 9581,22676 "/>
   <polygon class="fil0" points="17492,25105 17527,25105 17527,25209 17562,25209 17562,25382 17596,25382 17596,25417 17631,25417 17631,25521 17666,25521 17666,25591 17701,25591 17701,25625 17735,25625 17735,25695 17770,25695 17770,25729 17805,25729 17805,25764 17839,25764 17839,25799 17874,25799 17874,25833 17909,25833 17909,25868 17943,25868 17943,25903 17978,25903 17978,25938 18013,25938 18013,25972 18082,25972 18082,26007 18117,26007 18117,26042 18186,26042 18186,26076 18256,26076 18256,26111 18325,26111 18325,26146 18394,26146 18394,26180 18533,26180 18533,26215 18741,26215 18741,26250 19297,26250 19297,26215 19435,26215 19435,26180 19574,26180 19574,26146 19644,26146 19644,26111 19713,26111 19713,26076 19782,26076 19782,26042 19852,26042 19852,26007 19886,26007 19886,25972 19956,25972 19956,25938 19991,25938 19991,25903 20025,25903 20025,25868 20060,25868 20060,25833 20095,25833 20095,25799 20129,25799 20129,25764 20164,25764 20164,25729 20199,25729 20199,25660 20233,25660 20233,25625 20268,25625 20268,25556 20303,25556 20303,25486 20338,25486 20338,25382 20372,25382 20372,25278 20407,25278 20407,25139 20442,25139 20442,25001 20476,25001 20476,22780 19817,22780 19817,25001 19782,25001 19782,25105 19748,25105 19748,25209 19713,25209 19713,25278 19678,25278 19678,25348 19644,25348 19644,25382 19609,25382 19609,25417 19574,25417 19574,25452 19539,25452 19539,25486 19505,25486 19505,25521 19470,25521 19470,25556 19401,25556 19401,25591 19331,25591 19331,25625 19192,25625 19192,25660 18811,25660 18811,25625 18672,25625 18672,25591 18603,25591 18603,25556 18499,25556 18499,25521 18464,25521 18464,25486 18394,25486 18394,25452 18360,25452 18360,25417 18325,25417 18325,25348 18290,25348 18290,25313 18256,25313 18256,25244 18221,25244 18221,25209 18186,25209 18186,25070 18152,25070 18152,24931 18117,24931 18117,22780 17492,22780 "/>
   <path class="fil0" d="M5418 21462l35 0 0 -104 35 0 0 -69 35 0 0 -69 35 0 0 -69 35 0 0 -104 35 0 0 -69 35 0 0 -69 35 0 0 -104 35 0 0 -69 69 0 0 104 35 0 0 69 35 0 0 104 35 0 0 69 35 0 0 69 35 0 0 104 35 0 0 69 35 0 0 69 35 0 0 69 35 0 0 104 -694 0 0 -104zm2776 -347l-35 0 0 69 -35 0 0 35 -104 0 0 35 -35 0 0 35 -694 0 0 -659 729 0 0 35 35 0 0 35 69 0 0 35 35 0 0 69 35 0 0 35 35 0 0 208 -35 0 0 69zm-2672 -763l-35 0 0 69 -35 0 0 69 -35 0 0 69 -35 0 0 104 -35 0 0 69 -35 0 0 69 -35 0 0 104 -35 0 0 69 -35 0 0 69 -35 0 0 69 -35 0 0 104 -35 0 0 69 -35 0 0 69 -35 0 0 69 -35 0 0 104 -35 0 0 69 -35 0 0 69 -35 0 0 69 -35 0 0 69 -35 0 0 104 -35 0 0 69 -35 0 0 104 -35 0 0 35 -35 0 0 104 -35 0 0 35 -35 0 0 69 451 0 0 -69 35 0 0 -104 35 0 0 -69 35 0 0 -69 35 0 0 -69 1076 0 0 35 35 0 0 35 35 0 0 104 35 0 0 104 35 0 0 35 35 0 0 69 833 0 0 -694 382 0 0 35 35 0 0 69 35 0 0 35 35 0 0 35 35 0 0 35 35 0 0 35 35 0 0 35 35 0 0 69 35 0 0 35 35 0 0 35 35 0 0 35 35 0 0 35 35 0 0 35 35 0 0 35 35 0 0 35 35 0 0 69 35 0 0 35 486 0 0 -69 -35 0 0 -35 -35 0 0 -35 -35 0 0 -35 -35 0 0 -35 -35 0 0 -35 -35 0 0 -35 -35 0 0 -69 -35 0 0 -35 -35 0 0 -35 -35 0 0 -35 -35 0 0 -35 -35 0 0 -35 -35 0 0 -35 -35 0 0 -69 -35 0 0 -35 -35 0 0 -35 -35 0 0 -69 139 0 0 -35 35 0 0 -35 69 0 0 -35 35 0 0 -35 35 0 0 -35 35 0 0 -35 35 0 0 -69 35 0 0 -35 35 0 0 -139 35 0 0 -312 -35 0 0 -104 -35 0 0 -104 -35 0 0 -35 -35 0 0 -69 -35 0 0 -35 -35 0 0 -35 -35 0 0 -35 -69 0 0 -35 -69 0 0 -35 -104 0 0 -35 -104 0 0 -35 -1145 0 0 1978 -35 0 0 -69 -35 0 0 -69 -35 0 0 -104 -35 0 0 -69 -35 0 0 -69 -35 0 0 -69 -35 0 0 -69 -35 0 0 -104 -35 0 0 -69 -35 0 0 -69 -35 0 0 -69 -35 0 0 -104 -35 0 0 -35 -35 0 0 -104 -35 0 0 -69 -35 0 0 -104 -35 0 0 -69 -35 0 0 -69 -35 0 0 -69 -35 0 0 -69 -35 0 0 -104 -35 0 0 -69 -35 0 0 -69 -35 0 0 -69 -35 0 0 -104 -35 0 0 -35 -451 0 0 104z"/>
   <path class="fil0" d="M19019 21496l35 0 0 -104 35 0 0 -69 35 0 0 -69 35 0 0 -69 35 0 0 -104 35 0 0 -69 35 0 0 -104 35 0 0 -69 35 0 0 -104 69 0 0 69 35 0 0 69 35 0 0 104 35 0 0 69 35 0 0 69 35 0 0 104 35 0 0 35 35 0 0 104 35 0 0 69 35 0 0 139 -694 0 0 -69zm-1076 -347l-35 0 0 35 -35 0 0 35 -69 0 0 35 -35 0 0 35 -729 0 0 -659 729 0 0 35 69 0 0 35 35 0 0 35 35 0 0 35 35 0 0 69 35 0 0 208 -35 0 0 104zm1214 -833l-35 0 0 35 -35 0 0 139 -35 0 0 35 -35 0 0 104 -35 0 0 69 -35 0 0 69 -35 0 0 69 -35 0 0 104 -35 0 0 69 -35 0 0 69 -35 0 0 69 -35 0 0 104 -35 0 0 69 -35 0 0 69 -35 0 0 69 -35 0 0 69 -35 0 0 104 -35 0 0 69 -35 0 0 104 -35 0 0 35 -35 0 0 104 -35 0 0 69 -35 0 0 69 -69 0 0 -35 -35 0 0 -35 -35 0 0 -35 -35 0 0 -35 -35 0 0 -35 -35 0 0 -35 -35 0 0 -69 -35 0 0 -35 -35 0 0 -35 -35 0 0 -35 -35 0 0 -35 -35 0 0 -35 -35 0 0 -69 104 0 0 -35 104 0 0 -35 35 0 0 -35 69 0 0 -35 35 0 0 -69 35 0 0 -35 35 0 0 -69 35 0 0 -35 35 0 0 -520 -35 0 0 -69 -35 0 0 -35 -35 0 0 -69 -35 0 0 -35 -35 0 0 -35 -35 0 0 -35 -35 0 0 -35 -69 0 0 -35 -69 0 0 -35 -69 0 0 -35 -1249 0 0 2012 382 0 0 -659 382 0 0 35 35 0 0 35 35 0 0 35 35 0 0 35 35 0 0 69 35 0 0 35 35 0 0 35 35 0 0 35 35 0 0 35 35 0 0 35 35 0 0 35 35 0 0 69 35 0 0 35 35 0 0 35 35 0 0 35 35 0 0 35 35 0 0 69 694 0 0 -69 35 0 0 -69 35 0 0 -69 35 0 0 -104 35 0 0 -69 1110 0 0 69 35 0 0 69 35 0 0 69 35 0 0 69 35 0 0 104 451 0 0 -69 -35 0 0 -35 -35 0 0 -104 -35 0 0 -104 -35 0 0 -69 -35 0 0 -69 -35 0 0 -69 -35 0 0 -69 -35 0 0 -69 -35 0 0 -69 -35 0 0 -104 -35 0 0 -69 -35 0 0 -69 -35 0 0 -104 -35 0 0 -69 -35 0 0 -69 -35 0 0 -69 -35 0 0 -69 -35 0 0 -104 -35 0 0 -69 -35 0 0 -104 -35 0 0 -35 -35 0 0 -104 -35 0 0 -69 -35 0 0 -104 -35 0 0 -35 -35 0 0 -104 -451 0 0 69z"/>
   <polygon class="fil0" points="5626,26180 7985,26180 7985,25591 6250,25591 6250,22780 5626,22780 "/>
   <path class="fil0" d="M1011 21045l35 0 0 -69 35 0 0 -69 35 0 0 -69 35 0 0 -35 35 0 0 -35 35 0 0 -35 35 0 0 -35 35 0 0 -35 69 0 0 -35 69 0 0 -35 104 0 0 -35 312 0 0 35 104 0 0 35 69 0 0 35 69 0 0 35 35 0 0 35 35 0 0 35 35 0 0 69 35 0 0 35 35 0 0 104 35 0 0 104 35 0 0 382 -35 0 0 139 -35 0 0 69 -35 0 0 69 -35 0 0 35 -35 0 0 35 -35 0 0 35 -35 0 0 35 -69 0 0 35 -69 0 0 35 -104 0 0 35 -416 0 0 -35 -35 0 0 -35 -69 0 0 -35 -35 0 0 -35 -69 0 0 -35 -35 0 0 -35 -35 0 0 -69 -35 0 0 -35 -35 0 0 -104 -35 0 0 -104 -35 0 0 -416zm451 -798l-139 0 0 35 -104 0 0 35 -69 0 0 35 -69 0 0 35 -69 0 0 35 -35 0 0 35 -35 0 0 35 -35 0 0 35 -35 0 0 35 -35 0 0 35 -35 0 0 69 -35 0 0 69 -35 0 0 69 -35 0 0 104 -35 0 0 104 -35 0 0 555 35 0 0 104 35 0 0 104 35 0 0 69 35 0 0 69 35 0 0 35 35 0 0 69 35 0 0 35 35 0 0 35 35 0 0 35 35 0 0 35 69 0 0 35 35 0 0 35 69 0 0 35 69 0 0 35 104 0 0 35 208 0 0 35 347 0 0 -35 139 0 0 -35 69 0 0 -35 104 0 0 -35 104 0 0 35 35 0 0 35 35 0 0 35 35 0 0 35 35 0 0 35 35 0 0 35 69 0 0 -35 35 0 0 -35 35 0 0 -35 35 0 0 -35 35 0 0 -35 35 0 0 -35 35 0 0 -35 35 0 0 -35 -35 0 0 -35 -35 0 0 -35 -35 0 0 -35 -35 0 0 -35 -35 0 0 -35 -35 0 0 -139 35 0 0 -69 35 0 0 -35 35 0 0 -174 35 0 0 -590 -35 0 0 -104 -35 0 0 -104 -35 0 0 -69 -35 0 0 -69 -35 0 0 -35 -35 0 0 -35 -35 0 0 -35 -35 0 0 -35 -35 0 0 -35 -35 0 0 -35 -35 0 0 -35 -69 0 0 -35 -35 0 0 -35 -69 0 0 -35 -139 0 0 -35 -139 0 0 -35 -416 0 0 35z"/>
   <polygon class="fil0" points="14404,22329 15966,22329 15966,21913 14821,21913 14821,21496 15896,21496 15896,21115 14786,21115 14786,20629 15931,20629 15931,20247 14404,20247 "/>
   <polygon class="fil0" points="4689,26180 5314,26180 5314,22780 4689,22780 "/>
   <path class="fil0" d="M10969 21496l35 0 0 -69 35 0 0 -69 35 0 0 -104 35 0 0 -69 35 0 0 -104 35 0 0 -69 35 0 0 -69 35 0 0 -69 35 0 0 -69 35 0 0 -69 35 0 0 69 35 0 0 69 35 0 0 104 35 0 0 69 35 0 0 69 35 0 0 69 35 0 0 69 35 0 0 104 35 0 0 69 35 0 0 69 35 0 0 69 -729 0 0 -69zm139 -1180l-35 0 0 69 -35 0 0 104 -35 0 0 69 -35 0 0 69 -35 0 0 69 -35 0 0 69 -35 0 0 69 -35 0 0 104 -35 0 0 69 -35 0 0 69 -35 0 0 104 -35 0 0 69 -35 0 0 69 -35 0 0 69 -35 0 0 104 -35 0 0 69 -35 0 0 69 -35 0 0 69 -35 0 0 104 -35 0 0 69 -35 0 0 69 -35 0 0 69 -35 0 0 69 -35 0 0 104 -35 0 0 35 -35 0 0 104 416 0 0 -35 35 0 0 -69 35 0 0 -69 35 0 0 -104 35 0 0 -35 35 0 0 -69 1076 0 0 69 35 0 0 35 35 0 0 104 35 0 0 69 35 0 0 104 451 0 0 -104 -35 0 0 -35 -35 0 0 -104 -35 0 0 -69 -35 0 0 -69 -35 0 0 -69 -35 0 0 -69 -35 0 0 -104 -35 0 0 -35 -35 0 0 -104 -35 0 0 -69 -35 0 0 -104 -35 0 0 -69 -35 0 0 -69 -35 0 0 -69 -35 0 0 -69 -35 0 0 -104 -35 0 0 -104 -35 0 0 -35 -35 0 0 -69 -35 0 0 -104 -35 0 0 -69 -35 0 0 -69 -35 0 0 -69 -35 0 0 -69 -35 0 0 -69 -35 0 0 -104 -451 0 0 69z"/>
   <polygon class="fil0" points="4238,21635 4203,21635 4203,21739 4169,21739 4169,21809 4134,21809 4134,21843 4099,21843 4099,21878 4065,21878 4065,21913 4030,21913 4030,21947 3960,21947 3960,21982 3544,21982 3544,21947 3440,21947 3440,21913 3405,21913 3405,21878 3371,21878 3371,21843 3336,21843 3336,21809 3301,21809 3301,21739 3267,21739 3267,21635 3232,21635 3232,20282 2850,20282 2850,21600 2885,21600 2885,21809 2920,21809 2920,21913 2954,21913 2954,21982 2989,21982 2989,22017 3024,22017 3024,22051 3058,22051 3058,22086 3093,22086 3093,22121 3128,22121 3128,22156 3162,22156 3162,22190 3197,22190 3197,22225 3267,22225 3267,22260 3336,22260 3336,22294 3405,22294 3405,22329 3544,22329 3544,22364 3960,22364 3960,22329 4099,22329 4099,22294 4169,22294 4169,22260 4238,22260 4238,22225 4307,22225 4307,22190 4342,22190 4342,22156 4377,22156 4377,22121 4412,22121 4412,22086 4446,22086 4446,22051 4481,22051 4481,22017 4516,22017 4516,21947 4550,21947 4550,21878 4585,21878 4585,21739 4620,21739 4620,21635 4654,21635 4654,20247 4238,20247 "/>
   <polygon class="fil0" points="12843,22329 13259,22329 13259,21566 14265,21566 14265,21184 13259,21184 13259,20664 14335,20664 14335,20247 12843,20247 "/>
   <polygon class="fil0" points="8679,20629 9304,20629 9304,22329 9720,22329 9720,20629 10345,20629 10345,20282 8679,20282 "/>
   <polygon class="fil0" points="16070,22294 16451,22294 16451,20282 16070,20282 "/>
  </g>
 </g>
</svg>
