<?xml version="1.0" encoding="UTF-8"?>
<!DOCTYPE svg PUBLIC "-//W3C//DTD SVG 1.1//EN" "http://www.w3.org/Graphics/SVG/1.1/DTD/svg11.dtd">
<!-- Creator: CorelDRAW 2017 -->
<svg xmlns="http://www.w3.org/2000/svg" xml:space="preserve" width="210mm" height="297mm" version="1.1" style="shape-rendering:geometricPrecision; text-rendering:geometricPrecision; image-rendering:optimizeQuality; fill-rule:evenodd; clip-rule:evenodd"
viewBox="0 0 21000 29700"
 xmlns:xlink="http://www.w3.org/1999/xlink">
 <defs>
  <style type="text/css">
   <![CDATA[
    .fil0 {fill:black}
   ]]>
  </style>
 </defs>
 <g id="Camada_x0020_1">
  <metadata id="CorelCorpID_0Corel-Layer"/>
  <g id="_2336389188704">
   <path class="fil0" d="M5794 24706l-45 0 0 89 -45 0 0 89 -45 0 0 89 -45 0 0 45 -45 0 0 89 -45 0 0 45 -45 0 0 45 -45 0 0 45 -45 0 0 45 -89 0 0 45 -45 0 0 45 -89 0 0 45 -89 0 0 45 -89 0 0 45 -178 0 0 45 -178 0 0 45 -1695 0 0 -12668 1606 0 0 45 178 0 0 45 223 0 0 45 45 0 0 45 134 0 0 45 45 0 0 45 89 0 0 45 45 0 0 45 89 0 0 45 45 0 0 45 45 0 0 45 45 0 0 45 45 0 0 89 45 0 0 45 45 0 0 89 45 0 0 89 45 0 0 134 45 0 0 223 45 0 0 10393 -45 0 0 178zm0 -13962l-45 0 0 89 -45 0 0 89 -45 0 0 89 -45 0 0 89 -45 0 0 45 -45 0 0 45 -45 0 0 45 -45 0 0 45 -45 0 0 45 -45 0 0 45 -45 0 0 45 -89 0 0 45 -89 0 0 45 -89 0 0 45 -89 0 0 45 -178 0 0 45 -223 0 0 45 -1606 0 0 -7405 1740 0 0 45 223 0 0 45 134 0 0 45 89 0 0 45 89 0 0 45 89 0 0 45 45 0 0 45 45 0 0 45 45 0 0 45 45 0 0 45 45 0 0 45 45 0 0 45 45 0 0 89 45 0 0 89 45 0 0 89 45 0 0 89 45 0 0 178 45 0 0 5219 -45 0 0 178zm-4282 16103l3390 0 0 -45 268 0 0 -45 178 0 0 -45 89 0 0 -45 178 0 0 -45 89 0 0 -45 89 0 0 -45 89 0 0 -45 89 0 0 -45 89 0 0 -45 89 0 0 -45 45 0 0 -45 45 0 0 -45 89 0 0 -45 45 0 0 -45 45 0 0 -45 45 0 0 -45 45 0 0 -45 45 0 0 -45 45 0 0 -45 45 0 0 -45 45 0 0 -45 45 0 0 -45 45 0 0 -89 45 0 0 -45 45 0 0 -45 45 0 0 -89 45 0 0 -89 45 0 0 -89 45 0 0 -134 45 0 0 -89 45 0 0 -178 45 0 0 -268 45 0 0 -10795 -45 0 0 -268 -45 0 0 -134 -45 0 0 -89 -45 0 0 -134 -45 0 0 -89 -45 0 0 -89 -45 0 0 -89 -45 0 0 -45 -45 0 0 -89 -45 0 0 -45 -45 0 0 -45 -45 0 0 -89 -45 0 0 -45 -45 0 0 -45 -45 0 0 -45 -45 0 0 -45 -45 0 0 -45 -45 0 0 -45 -45 0 0 -45 -45 0 0 -45 -45 0 0 -45 45 0 0 -45 45 0 0 -45 45 0 0 -45 45 0 0 -45 45 0 0 -45 45 0 0 -89 45 0 0 -45 45 0 0 -45 45 0 0 -45 45 0 0 -89 45 0 0 -45 45 0 0 -45 45 0 0 -89 45 0 0 -89 45 0 0 -45 45 0 0 -134 45 0 0 -89 45 0 0 -89 45 0 0 -223 45 0 0 -89 45 0 0 -5754 -45 0 0 -178 -45 0 0 -178 -45 0 0 -134 -45 0 0 -89 -45 0 0 -89 -45 0 0 -134 -45 0 0 -45 -45 0 0 -45 -45 0 0 -89 -45 0 0 -45 -45 0 0 -89 -45 0 0 -45 -45 0 0 -45 -45 0 0 -45 -45 0 0 -45 -45 0 0 -45 -45 0 0 -45 -45 0 0 -45 -45 0 0 -45 -45 0 0 -45 -89 0 0 -45 -45 0 0 -45 -89 0 0 -45 -45 0 0 -45 -89 0 0 -45 -89 0 0 -45 -89 0 0 -45 -89 0 0 -45 -134 0 0 -45 -134 0 0 -45 -134 0 0 -45 -134 0 0 -45 -268 0 0 -45 -3390 0 0 23864z"/>
   <path class="fil0" d="M11994 24706l-45 0 0 134 -45 0 0 89 -45 0 0 45 -45 0 0 89 -45 0 0 45 -45 0 0 45 -45 0 0 45 -45 0 0 45 -45 0 0 45 -45 0 0 45 -89 0 0 45 -89 0 0 45 -45 0 0 45 -134 0 0 45 -223 0 0 45 -1784 0 0 -21277 1784 0 0 45 223 0 0 45 134 0 0 45 45 0 0 45 89 0 0 45 89 0 0 45 45 0 0 45 45 0 0 45 45 0 0 45 45 0 0 45 45 0 0 45 45 0 0 89 45 0 0 45 45 0 0 89 45 0 0 134 45 0 0 223 45 0 0 19136 -45 0 0 223zm-4238 2141l3212 0 0 -45 357 0 0 -45 223 0 0 -45 178 0 0 -45 89 0 0 -45 134 0 0 -45 89 0 0 -45 89 0 0 -45 89 0 0 -45 89 0 0 -45 89 0 0 -45 45 0 0 -45 89 0 0 -45 45 0 0 -45 45 0 0 -45 89 0 0 -89 45 0 0 -45 89 0 0 -45 45 0 0 -89 45 0 0 -45 45 0 0 -45 45 0 0 -89 45 0 0 -45 45 0 0 -89 45 0 0 -45 45 0 0 -89 45 0 0 -89 45 0 0 -134 45 0 0 -89 45 0 0 -178 45 0 0 -134 45 0 0 -19761 -45 0 0 -268 -45 0 0 -134 -45 0 0 -89 -45 0 0 -134 -45 0 0 -89 -45 0 0 -89 -45 0 0 -45 -45 0 0 -89 -45 0 0 -45 -45 0 0 -89 -45 0 0 -45 -45 0 0 -45 -45 0 0 -89 -45 0 0 -45 -45 0 0 -45 -45 0 0 -45 -45 0 0 -45 -89 0 0 -45 -45 0 0 -45 -45 0 0 -45 -89 0 0 -45 -45 0 0 -45 -89 0 0 -45 -45 0 0 -45 -89 0 0 -45 -89 0 0 -45 -134 0 0 -45 -89 0 0 -45 -178 0 0 -45 -134 0 0 -45 -223 0 0 -45 -268 0 0 -45 -3301 0 0 23864z"/>
   <polygon class="fil0" points="13912,26847 19622,26847 19622,25553 15339,25553 15339,12930 19622,12930 19622,11681 15339,11681 15339,4276 19622,4276 19622,2982 13912,2982 "/>
   <polygon class="fil0" points="15696,8469 16990,8469 16990,7175 18239,7175 18239,5926 19532,5926 19532,4633 15696,4633 "/>
   <polygon class="fil0" points="15875,25152 19666,25152 19666,23858 18417,23858 18417,22609 17124,22609 17124,21316 15875,21316 "/>
  </g>
 </g>
</svg>
