<?xml version="1.0" encoding="UTF-8"?>
<!DOCTYPE svg PUBLIC "-//W3C//DTD SVG 1.1//EN" "http://www.w3.org/Graphics/SVG/1.1/DTD/svg11.dtd">
<!-- Creator: CorelDRAW 2017 -->
<svg xmlns="http://www.w3.org/2000/svg" xml:space="preserve" width="210mm" height="297mm" version="1.1" style="shape-rendering:geometricPrecision; text-rendering:geometricPrecision; image-rendering:optimizeQuality; fill-rule:evenodd; clip-rule:evenodd"
viewBox="0 0 21000 29700"
 xmlns:xlink="http://www.w3.org/1999/xlink">
 <defs>
  <style type="text/css">
   <![CDATA[
    .fil0 {fill:black}
   ]]>
  </style>
 </defs>
 <g id="Camada_x0020_1">
  <metadata id="CorelCorpID_0Corel-Layer"/>
  <g id="_2336389201632">
   <polygon class="fil0" points="18581,5606 16931,5606 16931,7216 15320,7216 15320,8866 20231,8866 20231,3955 18581,3955 "/>
   <polygon class="fil0" points="627,5606 2277,5606 2277,7216 3888,7216 3888,8866 5538,8866 5538,3955 627,3955 "/>
   <polygon class="fil0" points="15320,25838 16970,25838 16970,24188 18581,24188 18581,22577 20231,22577 20231,20927 15320,20927 "/>
   <polygon class="fil0" points="7974,22538 9624,22538 9624,24188 11234,24188 11234,25838 12884,25838 12884,20927 7974,20927 "/>
   <polygon class="fil0" points="11234,13856 9624,13856 9624,15506 7974,15506 7974,17117 12884,17117 12884,12245 11234,12245 "/>
   <polygon class="fil0" points="666,17117 2277,17117 2277,15506 3888,15506 3888,13856 5538,13856 5538,12245 666,12245 "/>
   <path class="fil0" d="M15438 12324l4675 0 0 4675 -1414 0 0 -1611 -1650 0 0 -1650 -1611 0 0 -1414zm-236 1650l1650 0 0 1611 1611 0 0 1650 1846 0 0 -5107 -5107 0 0 1846z"/>
   <path class="fil0" d="M745 24306l1650 0 0 -1650 1611 0 0 -1611 1414 0 0 4675 -4675 0 0 -1414zm3064 -1846l-1650 0 0 1650 -1611 0 0 1807 5068 0 0 -5107 -1807 0 0 1650z"/>
   <path class="fil0" d="M11156 7138l-1650 0 0 1611 -1414 0 0 -4675 4675 0 0 1414 -1611 0 0 1650zm-3261 1807l1807 0 0 -1611 1650 0 0 -1650 1611 0 0 -1807 -5068 0 0 5068z"/>
  </g>
 </g>
</svg>
